<?xml version="1.0" standalone="no"?>
<!DOCTYPE svg PUBLIC "-//W3C//DTD SVG 20010904//EN"
 "http://www.w3.org/TR/2001/REC-SVG-20010904/DTD/svg10.dtd">
<svg version="1.0" xmlns="http://www.w3.org/2000/svg"
 width="450.000000pt" height="450.000000pt" viewBox="0 0 450.000000 450.000000"
 preserveAspectRatio="xMidYMid meet">
<metadata>
Created by potrace 1.11, written by Peter Selinger 2001-2013
</metadata>
<g transform="translate(0.000000,450.000000) scale(0.100000,-0.100000)"
fill="#000000" stroke="none">
<path d="M0 3178 l0 -1323 112 2 c62 1 123 5 136 9 12 3 23 2 23 -2 1 -5 3
-38 4 -73 3 -63 2 -64 -39 -102 -65 -61 -76 -55 -76 42 l0 81 -80 -4 -80 -3 0
-244 0 -243 343 3 342 4 0 -115 c0 -96 -3 -115 -15 -115 -12 0 -16 19 -18 97
l-3 98 -84 0 -83 0 -7 -110 c-7 -98 -10 -110 -26 -110 -16 0 -19 8 -20 63 0
34 -1 85 -2 112 l-2 50 -212 3 -213 2 0 -650 0 -650 2253 1 c1238 1 2245 3
2236 6 -14 3 -19 28 -29 124 -7 65 -17 119 -21 119 -5 0 -7 -26 -4 -57 7 -81
5 -144 -4 -161 -16 -29 -28 20 -35 143 -9 156 -8 125 -6 405 1 135 0 252 -4
260 -5 14 -14 138 -16 208 0 18 -4 31 -9 27 -6 -3 -8 -13 -7 -23 3 -14 -12
-128 -28 -220 -6 -33 -16 -40 -16 -11 0 92 34 279 50 279 10 0 5 82 -8 145
-63 305 -81 374 -105 422 -9 16 -21 66 -26 109 -17 122 -96 442 -115 463 -10
11 -30 22 -44 26 -15 4 -47 19 -72 34 -25 15 -59 33 -76 40 l-31 12 -9 277
c-5 152 -9 392 -10 532 0 140 -4 283 -8 316 -7 60 -6 61 21 72 25 10 106 20
203 27 19 1 69 5 110 9 141 12 225 14 268 6 l42 -7 0 123 c0 84 -4 124 -11
124 -6 0 -9 6 -6 14 7 18 -33 56 -59 56 -27 0 -46 -44 -27 -63 13 -13 12 -16
-16 -22 -39 -8 -39 -19 -1 -35 58 -24 23 -51 -39 -30 -33 11 -42 10 -65 -5
-20 -13 -37 -16 -71 -11 -29 5 -52 3 -67 -6 -13 -7 -50 -14 -83 -15 -33 -2
-87 -4 -120 -6 -33 -2 -70 -9 -83 -16 -15 -8 -39 -10 -67 -6 -32 5 -50 3 -67
-9 -27 -19 -59 -21 -76 -4 -9 9 -18 8 -39 -2 -16 -8 -55 -15 -88 -17 -156 -7
-182 -10 -205 -20 -37 -16 -83 6 -114 54 -49 75 -76 94 -150 107 -38 7 -38 8
-33 47 4 29 2 39 -8 39 -8 0 -17 -4 -20 -10 -3 -5 -1 -10 4 -10 17 0 6 -45
-12 -48 -17 -3 -47 19 -47 35 0 16 -62 34 -77 21 -7 -6 -28 -10 -46 -10 -138
1 -167 3 -167 12 0 5 7 7 15 4 8 -4 15 -2 15 3 0 13 -64 13 -72 -1 -4 -6 -5
-20 -2 -31 6 -19 5 -18 -15 3 -22 23 -65 30 -76 12 -9 -14 -51 -12 -62 3 -6 6
-8 42 -5 80 4 56 7 67 23 67 22 0 35 18 22 31 -16 16 -43 -2 -58 -38 -17 -40
-18 -46 -7 -40 4 3 7 -8 7 -24 0 -16 -6 -31 -13 -34 -12 -4 -15 2 -28 43 -4
15 -46 32 -78 32 -30 0 -56 -30 -57 -66 l-1 -29 -9 32 c-5 18 -14 35 -19 38
-16 10 -12 23 8 27 14 3 13 5 -5 10 -15 4 -23 2 -23 -6 0 -7 -18 -11 -45 -12
-32 0 -45 4 -45 14 0 10 8 13 24 10 29 -6 87 34 68 46 -7 4 -12 1 -12 -8 0 -9
-8 -17 -17 -17 -81 -6 -115 7 -112 45 3 39 -1 46 -26 46 -14 0 -25 4 -25 9 0
9 -85 5 -101 -4 -5 -4 -9 -1 -9 6 0 6 -8 17 -17 24 -15 11 -15 15 -4 29 21 25
0 43 -34 28 -30 -14 -32 -3 -9 34 24 36 7 47 -39 27 -30 -14 -37 -22 -35 -42
2 -13 -3 -26 -10 -28 -9 -4 -12 5 -10 31 1 27 11 45 35 67 19 16 31 34 28 39
-6 10 -52 12 -137 3 -50 -4 -58 -8 -58 -25 0 -17 5 -19 26 -15 20 3 28 0 31
-14 4 -14 11 -17 29 -13 21 6 24 3 24 -24 0 -43 -9 -62 -30 -62 -23 0 -37 -19
-42 -55 -2 -21 -8 -29 -18 -26 -36 10 -120 16 -122 9 -2 -4 -23 -10 -47 -13
-23 -3 -47 -8 -52 -11 -5 -3 -9 0 -9 7 0 9 -3 9 -14 0 -7 -6 -21 -8 -31 -5 -9
4 -20 2 -24 -4 -5 -8 -20 -7 -51 4 -40 14 -79 15 -130 3 -11 -3 -16 7 -18 39
-3 46 -4 47 -32 32 -12 -7 -17 -17 -13 -28 4 -14 2 -13 -10 3 -16 20 -16 20
-17 -2 0 -14 -6 -23 -15 -23 -8 0 -15 -6 -15 -14 0 -17 -27 -29 -35 -16 -4 6
-15 10 -26 10 -11 0 -18 -3 -16 -7 3 -5 -20 -6 -51 -3 l-57 4 50 7 c28 3 41 7
30 7 -12 1 -26 7 -32 13 -6 6 -17 11 -24 12 -22 4 -64 36 -56 43 4 4 2 13 -3
19 -12 14 14 30 31 19 5 -3 12 2 15 10 3 9 12 16 20 16 11 0 14 16 14 68 0 37
4 82 9 99 11 39 4 42 -86 41 -63 -1 -93 11 -93 38 0 12 40 14 224 14 219 0
224 0 219 -20 -4 -16 0 -20 22 -20 22 0 26 4 22 20 -3 10 0 21 7 24 6 2 -265
5 -601 5 l-613 1 0 -1322z m675 1302 c28 -7 29 -8 5 -10 l-25 -2 25 -7 c18 -5
26 -15 28 -34 3 -27 4 -27 78 -25 80 2 90 -2 79 -29 -4 -10 -9 -26 -10 -35 -1
-9 -12 -26 -26 -37 l-24 -20 28 -1 c47 0 32 -41 -17 -44 -18 -1 -21 -8 -22
-41 0 -52 -12 -85 -30 -85 -8 0 -14 5 -14 10 0 6 -8 10 -17 10 -12 0 -14 3 -6
11 13 13 4 59 -13 59 -7 0 -12 -10 -12 -22 4 -64 -1 -78 -27 -78 -15 0 -36
-11 -49 -25 -20 -22 -25 -23 -30 -9 -4 10 -13 14 -25 11 -23 -6 -31 11 -30 61
0 20 3 31 6 24 2 -6 8 -10 12 -7 5 2 6 -7 3 -20 -5 -29 20 -35 44 -11 16 16
19 76 4 76 -5 0 -10 23 -10 51 l0 50 54 -6 c63 -8 92 -1 99 23 3 9 8 25 12 34
6 14 2 17 -24 15 -19 -1 -33 -9 -36 -18 -7 -20 -47 -33 -56 -18 -4 7 -23 8
-51 4 -42 -6 -46 -5 -51 17 -3 12 -5 45 -5 71 1 36 4 47 14 43 8 -3 14 1 14 9
0 16 51 19 105 5z m1328 -497 c-7 -2 -19 -2 -25 0 -7 3 -2 5 12 5 14 0 19 -2
13 -5z m-353 -93 c0 -5 -8 -10 -17 -10 -15 0 -16 2 -3 10 19 12 20 12 20 0z
m-1300 -26 c0 -2 -7 -4 -15 -4 -8 0 -15 4 -15 10 0 5 7 7 15 4 8 -4 15 -8 15
-10z m288 -56 c-4 -27 -23 -34 -32 -13 -8 21 1 35 20 35 10 0 14 -8 12 -22z
m2199 -116 c84 -11 126 -40 157 -105 10 -23 25 -47 33 -56 11 -11 14 -30 11
-73 -2 -31 -7 -60 -10 -63 -3 -4 -24 -1 -47 5 -37 10 -40 12 -31 35 6 16 6 27
-1 31 -18 11 -104 7 -144 -6 -20 -7 -44 -10 -54 -7 -43 11 -66 -30 -35 -64 12
-14 14 -29 9 -74 -6 -48 -11 -58 -33 -66 -14 -5 -33 -8 -42 -7 -9 2 -33 -6
-53 -17 -41 -22 -49 -54 -17 -62 11 -3 20 -14 20 -24 0 -21 -10 -31 -87 -89
-28 -22 -54 -48 -58 -60 -7 -21 -35 -28 -35 -9 0 6 -9 9 -20 6 -39 -10 -38 63
5 295 13 73 64 216 106 300 20 40 93 96 149 115 36 12 53 12 177 -5z m-2518
-181 c30 -41 28 -101 -3 -131 -28 -26 -56 -21 -56 10 0 11 -4 20 -10 20 -15 0
-12 67 5 100 20 38 38 38 64 1z m1426 -50 c3 -5 1 -12 -5 -16 -5 -3 -10 -16
-11 -28 0 -21 -1 -21 -10 2 -14 37 7 72 26 42z m-185 -36 c30 -12 32 -13 10
-13 -14 0 -41 6 -60 13 -30 12 -32 13 -10 13 14 0 41 -6 60 -13z m-60 -27 c8
-13 15 -30 16 -38 1 -8 5 -23 9 -34 6 -14 4 -17 -11 -14 -12 2 -21 14 -24 33
-6 35 -35 46 -43 15 -3 -11 -10 -20 -16 -20 -15 0 -14 27 2 37 8 4 16 16 20
26 9 24 29 21 47 -5z m765 -104 c-1 -64 -6 -109 -13 -116 -7 -7 -12 -18 -12
-26 0 -14 -67 -132 -81 -142 -14 -10 -49 -86 -49 -106 0 -12 9 -42 21 -68 26
-59 22 -107 -8 -121 -23 -10 -32 -35 -13 -35 6 0 10 4 10 8 0 5 7 9 15 9 8 0
15 -9 15 -19 0 -10 -4 -18 -9 -18 -9 0 -51 -61 -51 -74 0 -4 5 -4 10 -1 10 6
-29 -66 -41 -75 -3 -3 -9 -15 -13 -27 -8 -24 -56 -58 -98 -68 -29 -7 -27 -12
-41 160 -2 22 -4 -8 -5 -67 -2 -96 -4 -108 -22 -118 -11 -6 -24 -9 -29 -6 -5
3 -14 52 -21 108 -16 129 -6 808 12 819 20 13 38 -3 38 -33 0 -17 4 -27 10
-23 6 3 10 20 10 36 0 22 6 32 25 39 14 5 25 16 25 24 0 7 8 17 18 22 21 9
131 20 228 21 l70 1 -1 -104z m-515 24 c19 -58 22 -95 32 -507 10 -435 10
-443 -9 -463 -20 -19 -20 -18 -27 194 -4 117 -11 217 -15 221 -5 5 -6 28 -3
53 2 24 0 44 -5 44 -5 0 -7 16 -5 35 4 32 2 35 -22 35 -32 0 -35 17 -4 22 19
2 24 11 30 52 4 27 4 94 0 150 -7 96 -5 226 3 226 2 0 13 -28 25 -62z m-150
-22 c0 -11 -19 -15 -25 -6 -3 5 1 10 9 10 9 0 16 -2 16 -4z m90 -41 c0 -8 -4
-15 -8 -15 -5 0 -9 7 -9 15 0 8 4 15 9 15 4 0 8 -7 8 -15z m-130 1 c0 -2 -19
-15 -42 -30 l-43 -27 35 31 c30 27 50 37 50 26z m1285 -54 c-3 -3 -16 1 -30 8
-19 10 -22 16 -14 27 10 11 15 9 30 -9 11 -11 17 -23 14 -26z m-1439 2 c-12
-27 -26 -32 -26 -9 0 8 5 15 11 15 6 0 9 7 6 14 -4 10 -1 13 7 10 11 -4 11
-10 2 -30z m1344 14 c0 -13 -23 -5 -28 10 -2 7 2 10 12 6 9 -3 16 -11 16 -16z
m-1100 -8 c0 -5 -4 -10 -10 -10 -5 0 -10 5 -10 10 0 6 5 10 10 10 6 0 10 -4
10 -10z m-46 -36 c4 -11 1 -14 -11 -12 -9 2 -18 9 -21 16 -6 18 25 15 32 -4z
m-99 -4 c3 -5 -3 -10 -15 -10 -12 0 -18 5 -15 10 3 6 10 10 15 10 5 0 12 -4
15 -10z m-225 -87 c-1 -32 -4 -43 -9 -33 -8 14 -4 80 5 80 2 0 4 -21 4 -47z
m184 13 c17 -42 11 -76 -15 -76 -16 0 -19 8 -19 55 0 63 13 71 34 21z m47 -12
c12 -14 11 -16 -5 -13 -11 2 -21 10 -24 17 -5 17 13 15 29 -4z m95 -22 c-3 -5
-16 -7 -29 -5 -23 5 -60 -23 -83 -63 -10 -16 -14 -17 -25 -5 -12 11 -11 15 6
25 11 6 31 23 45 38 27 26 68 40 84 27 4 -4 6 -12 2 -17z m94 -22 c0 -5 -9
-10 -20 -10 -11 0 -23 -7 -26 -15 -4 -8 -10 -15 -15 -15 -10 0 -12 33 -2 43
10 11 63 8 63 -3z m-830 -57 c0 -16 -5 -35 -10 -43 -7 -11 -10 -4 -10 28 0 23
5 42 10 42 6 0 10 -12 10 -27z m727 -25 c-3 -8 -6 -5 -6 6 -1 11 2 17 5 13 3
-3 4 -12 1 -19z m-827 -35 c0 -25 -1 -26 -16 -11 -9 9 -13 21 -10 27 13 20 26
11 26 -16z m880 23 c0 -11 -19 -15 -25 -6 -3 5 1 10 9 10 9 0 16 -2 16 -4z
m532 -36 c-5 -45 -22 -55 -22 -12 0 21 15 52 25 52 0 0 -1 -18 -3 -40z m377
14 c2 -2 -8 -15 -22 -28 -34 -31 -35 -63 -3 -78 14 -6 27 -16 30 -24 6 -16
-56 -46 -78 -38 -20 8 -30 45 -20 76 4 13 8 32 8 43 1 11 5 21 11 22 5 1 13
11 17 23 6 17 13 20 30 14 13 -3 25 -8 27 -10z m-949 -14 c16 -10 15 -12 -22
-27 -30 -14 -38 -9 -31 18 6 20 29 25 53 9z m-210 -15 c0 -8 -6 -15 -14 -15
-8 0 -19 -12 -24 -27 l-10 -28 -1 31 c-1 31 14 54 36 54 7 0 13 -7 13 -15z
m-465 -35 c-6 -9 -9 -9 -16 1 -10 17 0 34 13 21 6 -6 7 -16 3 -22z m750 20 c8
-13 -5 -13 -25 0 -13 8 -13 10 2 10 9 0 20 -4 23 -10z m-232 -68 c-3 -29 -9
-52 -13 -52 -12 0 -18 73 -8 99 15 40 28 10 21 -47z m82 33 c-11 -8 -28 -22
-37 -31 -26 -25 -22 -5 4 23 12 13 29 23 37 23 13 -1 12 -4 -4 -15z m-295 -76
c0 -18 -19 -9 -39 20 -11 15 -17 31 -13 35 7 8 52 -39 52 -55z m415 40 c4 -11
4 -24 0 -27 -9 -9 -36 28 -29 39 9 15 22 10 29 -12z m-255 -9 c0 -5 -4 -10 -9
-10 -6 0 -11 -15 -13 -32 -2 -25 -8 -33 -23 -33 -13 0 -19 5 -16 15 2 8 4 22
4 30 0 8 4 21 10 28 11 14 47 16 47 2z m-1190 -481 c0 -5 -9 -9 -21 -9 -11 0
-29 -5 -40 -11 -24 -12 -59 -3 -59 16 0 11 15 14 60 14 33 -1 60 -5 60 -10z
m65 1 c3 -5 -3 -10 -15 -10 -12 0 -18 5 -15 10 3 6 10 10 15 10 5 0 12 -4 15
-10z m43 -58 c2 -7 -3 -12 -12 -12 -9 0 -16 7 -16 16 0 17 22 14 28 -4z m354
-493 c126 -134 150 -177 85 -146 -16 7 -27 20 -27 32 0 11 -35 58 -78 104 -60
66 -82 83 -96 78 -14 -6 -16 -10 -7 -20 16 -20 2 -33 -144 -137 -72 -50 -136
-99 -143 -108 -10 -14 -12 -13 -12 9 0 14 10 32 22 41 13 9 73 53 135 97 117
85 134 101 109 101 -9 0 -16 4 -16 9 0 10 50 50 62 51 3 0 53 -50 110 -111z
m2 -95 c9 -3 23 -21 32 -40 10 -21 24 -34 35 -34 10 0 40 -22 65 -49 43 -46
52 -51 115 -61 38 -6 74 -8 80 -4 8 4 9 3 5 -4 -4 -7 9 -15 36 -23 132 -36
158 -52 158 -99 0 -14 7 -35 15 -46 19 -25 19 -53 0 -60 -8 -4 -15 -19 -15
-34 0 -50 -17 -82 -43 -79 -12 2 -27 0 -34 -4 -16 -10 -223 -28 -235 -21 -5 3
-8 70 -7 151 2 135 1 145 -19 158 -12 9 -18 22 -15 33 3 14 -5 25 -31 40 -20
12 -46 38 -57 57 -29 49 -45 40 -41 -24 4 -50 3 -53 -20 -49 -22 3 -23 6 -19
76 2 56 0 72 -11 72 -10 0 -13 -16 -10 -75 4 -72 3 -75 -18 -75 -21 0 -21 3
-16 73 8 105 9 111 20 119 13 9 11 9 30 2z m-550 -21 c35 -18 36 -18 36 -85 0
-77 6 -81 57 -42 39 30 52 26 35 -11 -14 -29 -40 -37 -113 -33 l-54 3 -3 70
c-2 38 -8 75 -13 82 -11 13 -4 33 11 33 5 0 25 -8 44 -17z m1163 -315 c-3 -8
-6 -5 -6 6 -1 11 2 17 5 13 3 -3 4 -12 1 -19z m1791 -270 c16 -16 -50 -34
-187 -52 -57 -7 -98 -18 -105 -27 -18 -23 -69 -55 -98 -63 -41 -10 -35 14 12
47 22 16 40 33 40 38 0 14 -72 11 -102 -5 -32 -17 -35 -14 -12 8 8 9 28 16 44
16 15 0 41 7 56 15 19 10 61 15 119 16 50 1 104 5 120 9 48 12 100 11 113 -2z
m54 -137 c-1 -14 -3 -26 -5 -27 -6 -6 -190 -24 -243 -24 -46 0 -68 -5 -87 -20
-14 -11 -33 -20 -43 -20 -15 0 -15 3 5 23 17 19 43 27 129 41 59 10 116 23
127 31 28 17 54 23 90 22 26 -2 30 -6 27 -26z m98 -26 c0 -8 -2 -15 -4 -15 -2
0 -6 7 -10 15 -3 8 -1 15 4 15 6 0 10 -7 10 -15z m-19 -68 c-13 -13 -15 1 -4
30 7 17 8 17 11 -1 2 -10 -1 -23 -7 -29z m1128 -557 c0 -107 1 -212 1 -232 1
-27 -4 -38 -14 -38 -19 0 -28 27 -16 51 7 12 7 25 1 37 -5 9 -9 57 -9 106 -1
48 -3 90 -5 92 -2 3 -7 -48 -11 -112 -4 -64 -10 -123 -13 -130 -8 -21 -23 -17
-23 7 0 11 -7 28 -16 36 -11 12 -14 27 -11 52 3 20 2 56 -3 81 -7 43 -8 41
-10 -30 -1 -41 -2 -98 0 -127 l2 -51 -54 -7 c-29 -3 -91 -5 -138 -3 l-85 3 0
124 0 124 51 16 c28 9 62 28 75 42 13 14 52 52 85 83 52 48 61 53 57 32 -4
-20 -1 -24 13 -22 15 3 18 11 16 35 -1 20 2 30 8 26 5 -3 10 -1 10 4 0 6 5 11
11 11 6 0 8 -8 4 -19 -3 -11 -1 -22 4 -25 5 -4 13 -35 16 -71 4 -36 10 -63 14
-61 3 2 7 57 9 121 2 81 0 115 -7 110 -6 -3 -11 1 -11 9 0 9 7 16 15 16 8 0
16 6 16 13 6 53 17 -145 18 -303z m31 40 c0 -5 -4 -10 -10 -10 -5 0 -10 5 -10
10 0 6 5 10 10 10 6 0 10 -4 10 -10z m0 -42 c0 -7 3 -24 6 -38 5 -24 5 -24
-10 -6 -18 22 -21 56 -6 56 6 0 10 -6 10 -12z"/>
<path d="M635 4470 c3 -5 8 -10 11 -10 2 0 4 5 4 10 0 6 -5 10 -11 10 -5 0 -7
-4 -4 -10z"/>
<path d="M2605 3472 c-69 -6 -96 -14 -125 -38 -30 -26 -39 -57 -19 -69 6 -4
17 3 26 14 13 20 44 22 63 4 8 -7 -24 -23 -47 -23 -28 0 -40 -20 -19 -32 9 -5
16 -16 16 -23 0 -19 64 -20 100 -2 39 20 90 94 90 132 0 28 -4 33 -27 36 -16
2 -41 3 -58 1z"/>
<path d="M2515 3180 c-26 -29 -13 -45 13 -17 13 14 19 28 14 31 -5 3 -17 -3
-27 -14z"/>
<path d="M2437 3144 c-8 -8 1 -24 13 -24 4 0 10 7 14 15 5 15 -14 21 -27 9z"/>
<path d="M2012 2610 c0 -14 2 -19 5 -12 2 6 2 18 0 25 -3 6 -5 1 -5 -13z"/>
<path d="M4213 365 c0 -22 2 -30 4 -17 2 12 2 30 0 40 -3 9 -5 -1 -4 -23z"/>
<path d="M4025 257 c-4 -10 -5 -21 -1 -24 10 -10 18 4 13 24 -4 17 -4 17 -12
0z"/>
<path d="M4032 75 c0 -16 2 -22 5 -12 2 9 2 23 0 30 -3 6 -5 -1 -5 -18z"/>
<path d="M1278 4493 c18 -2 45 -2 60 0 15 2 0 4 -33 4 -33 0 -45 -2 -27 -4z"/>
<path d="M937 4373 c-4 -3 -7 -11 -7 -17 0 -6 5 -5 12 2 6 6 9 14 7 17 -3 3
-9 2 -12 -2z"/>
<path d="M1087 4334 c-4 -4 -7 -20 -7 -36 0 -22 5 -28 21 -28 17 0 20 5 17 32
-3 31 -17 45 -31 32z"/>
<path d="M1176 4324 c-9 -8 -16 -21 -16 -29 0 -7 -6 -16 -12 -18 -7 -3 4 -6
25 -6 35 -1 37 1 37 28 0 37 -13 46 -34 25z"/>
<path d="M1044 4227 c-2 -7 1 -25 9 -39 l13 -26 13 30 c12 25 11 32 0 39 -20
12 -29 11 -35 -4z"/>
<path d="M1137 4234 c-4 -4 -7 -14 -7 -23 0 -11 3 -12 11 -4 6 6 10 16 7 23
-2 6 -7 8 -11 4z"/>
<path d="M960 4162 c0 -34 15 -43 56 -34 20 5 30 14 32 30 4 27 -14 29 -21 2
-7 -27 -47 -27 -47 -1 0 11 -4 23 -10 26 -6 4 -10 -6 -10 -23z"/>
<path d="M2807 4074 c-13 -14 -7 -54 8 -54 8 0 15 9 15 20 0 11 0 23 1 27 1
10 -16 15 -24 7z"/>
<path d="M2852 4045 c2 -14 8 -26 13 -26 6 0 11 12 13 26 2 18 -1 25 -13 25
-12 0 -15 -7 -13 -25z"/>
<path d="M2752 4040 c0 -14 2 -19 5 -12 2 6 2 18 0 25 -3 6 -5 1 -5 -13z"/>
<path d="M2330 4030 c-13 -9 -13 -10 0 -10 8 0 22 5 30 10 13 9 13 10 0 10 -8
0 -22 -5 -30 -10z"/>
<path d="M2548 3973 c6 -2 18 -2 25 0 6 3 1 5 -13 5 -14 0 -19 -2 -12 -5z"/>
<path d="M2507 3953 c-10 -10 -8 -43 2 -43 9 0 21 24 21 41 0 11 -14 12 -23 2z"/>
<path d="M3090 3950 c-8 -5 -23 -7 -33 -4 -14 5 -18 1 -15 -13 4 -23 56 -31
64 -9 9 24 1 37 -16 26z"/>
<path d="M4335 3921 c-3 -5 -1 -12 5 -16 5 -3 10 1 10 9 0 18 -6 21 -15 7z"/>
<path d="M2710 3886 c7 -7 14 -6 21 1 9 9 7 12 -9 10 -14 -1 -18 -5 -12 -11z"/>
<path d="M3438 3893 c7 -3 16 -2 19 1 4 3 -2 6 -13 5 -11 0 -14 -3 -6 -6z"/>
<path d="M2946 3872 c-3 -5 1 -9 9 -9 8 0 15 4 15 9 0 4 -4 8 -9 8 -6 0 -12
-4 -15 -8z"/>
<path d="M4493 2525 c0 -22 2 -30 4 -17 2 12 2 30 0 40 -3 9 -5 -1 -4 -23z"/>
<path d="M4484 2465 c-3 -8 -1 -27 4 -42 10 -27 10 -26 11 15 1 43 -5 54 -15
27z"/>
<path d="M4493 2285 c0 -33 2 -45 4 -27 2 18 2 45 0 60 -2 15 -4 0 -4 -33z"/>
<path d="M4492 2030 c0 -14 2 -19 5 -12 2 6 2 18 0 25 -3 6 -5 1 -5 -13z"/>
<path d="M4487 1900 c3 -11 7 -20 9 -20 2 0 4 9 4 20 0 11 -4 20 -9 20 -5 0
-7 -9 -4 -20z"/>
<path d="M4485 1730 c-3 -5 -3 -15 0 -20 4 -6 2 -17 -4 -24 -9 -10 -8 -15 4
-20 12 -4 15 3 15 34 0 41 -4 48 -15 30z"/>
<path d="M4480 1448 c0 -38 3 -49 10 -38 13 20 13 90 0 90 -5 0 -10 -24 -10
-52z"/>
<path d="M4474 1346 c-3 -13 -2 -245 1 -517 11 -741 12 -769 19 -776 3 -3 6
291 6 655 -1 610 -5 719 -26 638z"/>
<path d="M4418 1058 c-4 -10 -7 -112 -8 -227 0 -162 3 -211 14 -220 7 -6 16
-8 19 -4 8 7 -1 297 -12 402 -4 41 -9 59 -13 49z"/>
<path d="M4430 570 c-3 -22 -4 -94 -1 -185 2 -63 5 -76 13 -59 7 15 7 60 1
140 -6 66 -11 112 -13 104z"/>
</g>
</svg>
